<svg width="14" height="12" viewBox="0 0 14 12" fill="none" xmlns="http://www.w3.org/2000/svg">
<path d="M12.856 5.14347H2.69119L5.80234 1.40666C5.94781 1.23163 6.0178 1.00599 5.99691 0.779355C5.97601 0.552724 5.86595 0.343676 5.69092 0.198198C5.51589 0.0527213 5.29024 -0.0172684 5.06361 0.00362668C4.83698 0.0245217 4.62793 0.13459 4.48246 0.309617L0.197125 5.45201C0.168294 5.49292 0.142512 5.53589 0.119989 5.58057C0.119989 5.62343 0.119989 5.64914 0.0599948 5.69199C0.021147 5.79026 0.000806603 5.89487 0 6.00054C0.000806603 6.1062 0.021147 6.21081 0.0599948 6.30908C0.0599948 6.35193 0.0599945 6.37764 0.119989 6.4205C0.142512 6.46519 0.168294 6.50816 0.197125 6.54906L4.48246 11.6915C4.56304 11.7882 4.66395 11.866 4.77801 11.9193C4.89207 11.9727 5.01648 12.0002 5.1424 12C5.34265 12.0004 5.53672 11.9306 5.69092 11.8029C5.7777 11.7309 5.84944 11.6426 5.90202 11.5428C5.95461 11.4431 5.987 11.334 5.99735 11.2218C6.0077 11.1095 5.9958 10.9963 5.96234 10.8887C5.92888 10.781 5.8745 10.681 5.80234 10.5944L2.69119 6.8576H12.856C13.0833 6.8576 13.3013 6.7673 13.462 6.60657C13.6228 6.44584 13.7131 6.22784 13.7131 6.00054C13.7131 5.77323 13.6228 5.55523 13.462 5.3945C13.3013 5.23377 13.0833 5.14347 12.856 5.14347Z" fill="url(#paint0_linear_4_65)"/>
<defs>
<linearGradient id="paint0_linear_4_65" x1="0" y1="6" x2="13.7131" y2="6" gradientUnits="userSpaceOnUse">
<stop stop-color="#9FCC5B"/>
<stop offset="1" stop-color="#18A0D7"/>
</linearGradient>
</defs>
</svg>
