<svg width="30" height="30" viewBox="0 0 30 30" fill="none" xmlns="http://www.w3.org/2000/svg">
<path d="M8.93617 9.89362C8.93617 9.63969 9.03704 9.39616 9.2166 9.2166C9.39616 9.03704 9.63969 8.93617 9.89362 8.93617H20.1064C20.3603 8.93617 20.6038 9.03704 20.7834 9.2166C20.963 9.39616 21.0638 9.63969 21.0638 9.89362C21.0638 10.1475 20.963 10.3911 20.7834 10.5706C20.6038 10.7502 20.3603 10.8511 20.1064 10.8511H9.89362C9.63969 10.8511 9.39616 10.7502 9.2166 10.5706C9.03704 10.3911 8.93617 10.1475 8.93617 9.89362ZM9.89362 15.9574H20.1064C20.3603 15.9574 20.6038 15.8566 20.7834 15.677C20.963 15.4975 21.0638 15.2539 21.0638 15C21.0638 14.7461 20.963 14.5025 20.7834 14.323C20.6038 14.1434 20.3603 14.0426 20.1064 14.0426H9.89362C9.63969 14.0426 9.39616 14.1434 9.2166 14.323C9.03704 14.5025 8.93617 14.7461 8.93617 15C8.93617 15.2539 9.03704 15.4975 9.2166 15.677C9.39616 15.8566 9.63969 15.9574 9.89362 15.9574ZM15 19.1489H9.89362C9.63969 19.1489 9.39616 19.2498 9.2166 19.4294C9.03704 19.6089 8.93617 19.8524 8.93617 20.1064C8.93617 20.3603 9.03704 20.6038 9.2166 20.7834C9.39616 20.963 9.63969 21.0638 9.89362 21.0638H15C15.2539 21.0638 15.4975 20.963 15.677 20.7834C15.8566 20.6038 15.9574 20.3603 15.9574 20.1064C15.9574 19.8524 15.8566 19.6089 15.677 19.4294C15.4975 19.2498 15.2539 19.1489 15 19.1489ZM30 2.23404V19.5782C30.0005 19.8717 29.943 20.1623 29.8307 20.4335C29.7184 20.7046 29.5536 20.9508 29.3457 21.158L21.158 29.3457C20.9508 29.5536 20.7046 29.7184 20.4335 29.8307C20.1623 29.943 19.8717 30.0005 19.5782 30H2.23404C1.64154 30 1.0733 29.7646 0.654336 29.3457C0.235372 28.9267 0 28.3585 0 27.766V2.23404C0 1.64154 0.235372 1.0733 0.654336 0.654336C1.0733 0.235372 1.64154 0 2.23404 0H27.766C28.3585 0 28.9267 0.235372 29.3457 0.654336C29.7646 1.0733 30 1.64154 30 2.23404ZM2.23404 28.0851H19.1489V20.1064C19.1489 19.8524 19.2498 19.6089 19.4294 19.4294C19.6089 19.2498 19.8524 19.1489 20.1064 19.1489H28.0851V2.23404C28.0851 2.1494 28.0515 2.06822 27.9916 2.00837C27.9318 1.94852 27.8506 1.91489 27.766 1.91489H2.23404C2.1494 1.91489 2.06822 1.94852 2.00837 2.00837C1.94852 2.06822 1.91489 2.1494 1.91489 2.23404V27.766C1.91489 27.8506 1.94852 27.9318 2.00837 27.9916C2.06822 28.0515 2.1494 28.0851 2.23404 28.0851ZM26.7319 21.0638H21.0638V26.7319L26.7319 21.0638Z" fill="url(#paint0_linear_3_93)"/>
<defs>
<linearGradient id="paint0_linear_3_93" x1="0" y1="15" x2="30" y2="15" gradientUnits="userSpaceOnUse">
<stop stop-color="#9FCC5B"/>
<stop offset="1" stop-color="#18A0D7"/>
</linearGradient>
</defs>
</svg>
