<svg width="17" height="16" viewBox="0 0 17 16" fill="none" xmlns="http://www.w3.org/2000/svg">
<path d="M16.7146 14.5919C15.6618 12.7442 14.0178 11.3045 12.0474 10.5045C13.0273 9.76962 13.7511 8.74504 14.1163 7.57591C14.4815 6.40678 14.4696 5.15238 14.0823 3.99039C13.695 2.8284 12.9518 1.81774 11.9582 1.10156C10.9645 0.385384 9.77075 0 8.54591 0C7.32107 0 6.12727 0.385384 5.13363 1.10156C4.13999 1.81774 3.39687 2.8284 3.00954 3.99039C2.62221 5.15238 2.61031 6.40678 2.97551 7.57591C3.34072 8.74504 4.06453 9.76962 5.0444 10.5045C3.07397 11.3045 1.43005 12.7442 0.377259 14.5919C0.312024 14.6968 0.268545 14.8138 0.249408 14.9358C0.23027 15.0578 0.235863 15.1825 0.265856 15.3023C0.295849 15.4221 0.349628 15.5347 0.423997 15.6333C0.498366 15.7319 0.591807 15.8146 0.698763 15.8764C0.80572 15.9382 0.924009 15.9779 1.0466 15.993C1.16919 16.0082 1.29358 15.9986 1.41237 15.9647C1.53116 15.9308 1.64193 15.8734 1.73809 15.7959C1.83425 15.7184 1.91384 15.6223 1.97213 15.5134C3.36352 13.1084 5.82072 11.674 8.54591 11.674C11.2711 11.674 13.7283 13.1092 15.1197 15.5134C15.246 15.7165 15.4464 15.8625 15.6784 15.9206C15.9105 15.9787 16.156 15.9443 16.3631 15.8246C16.5702 15.7049 16.7227 15.5094 16.7883 15.2794C16.8539 15.0493 16.8274 14.8028 16.7146 14.5919ZM4.55296 5.83815C4.55296 5.04842 4.78714 4.27643 5.22589 3.61979C5.66465 2.96315 6.28826 2.45136 7.01787 2.14915C7.74749 1.84693 8.55034 1.76786 9.3249 1.92193C10.0995 2.076 10.8109 2.45629 11.3694 3.01471C11.9278 3.57313 12.3081 4.28461 12.4621 5.05917C12.6162 5.83372 12.5371 6.63657 12.2349 7.36619C11.9327 8.0958 11.4209 8.71942 10.7643 9.15817C10.1076 9.59692 9.33564 9.8311 8.54591 9.8311C7.48729 9.82988 6.47237 9.4088 5.72382 8.66025C4.97526 7.91169 4.55418 6.89677 4.55296 5.83815Z" fill="url(#paint0_linear_1_52)"/>
<defs>
<linearGradient id="paint0_linear_1_52" x1="4.38461" y1="1.5" x2="13.2665" y2="14.7988" gradientUnits="userSpaceOnUse">
<stop stop-color="#97C72F"/>
<stop offset="1" stop-color="#1CA2CC"/>
</linearGradient>
</defs>
</svg>
